<?xml version="1.0" standalone="no"?><!DOCTYPE svg PUBLIC "-//W3C//DTD SVG 1.1//EN" "http://www.w3.org/Graphics/SVG/1.1/DTD/svg11.dtd"><svg t="1692084271333" class="icon" viewBox="0 0 1024 1024" version="1.1" xmlns="http://www.w3.org/2000/svg" p-id="2200" xmlns:xlink="http://www.w3.org/1999/xlink" width="16" height="16"><path d="M9.14372835 1039.20071111L1020.26808889 1039.20071111l0-1048.576L9.14372835-9.37528889 9.14372835 1039.20071111z m252.77672107-711.53454649l1e-8-262.144 175.00150897 0 0 262.144L261.92044942 327.66616462zM942.48705138 702.1592576l0 262.14400001-178.89289103-1e-8 1e-8-262.144 178.89289102 0z m-256.66810311 0l0 262.144-171.11595236 0 0-262.144 171.11595236 0z m-248.89698987 0l0 262.144L261.92044943 964.3032576l-1e-8-262.144 175.00150898 0z m505.56509298-299.59563948L942.48705139 627.26180409l-178.89289104 0 0-224.69818596 178.89289103-1e-8z m-256.66810311 1e-8L685.81894827 627.26180409l-171.11595236 0 0-224.69818596 171.11595236 0z m-248.89698987 0L436.9219584 627.26180409 261.92044943 627.26180409l0-224.69818596 175.00150897 0z m505.56509298-337.04145352l0 262.14400001-178.89289102 0-1e-8-262.144 178.89289103-1e-8z m-256.66810311 1e-8l0 262.144-171.11595236 0 0-262.144 171.11595236 0z" fill="currentColor" p-id="2201"></path></svg>