<?xml version="1.0" standalone="no"?><!DOCTYPE svg PUBLIC "-//W3C//DTD SVG 1.1//EN" "http://www.w3.org/Graphics/SVG/1.1/DTD/svg11.dtd"><svg t="1692084199654" class="icon" viewBox="0 0 1024 1024" version="1.1" xmlns="http://www.w3.org/2000/svg" p-id="1975" width="16" height="16" xmlns:xlink="http://www.w3.org/1999/xlink"><path d="M776.08580741 364.42263703c-15.53445925-7.76722963-31.06891852-7.76722963-46.60337778 0L589.6722963 512l139.81013333 147.57736297c15.53445925 7.76722963 31.06891852 7.76722963 46.60337778 0 15.53445925-15.53445925 15.53445925-31.06891852 0-46.60337779L706.18074075 543.06891852h163.11182222c15.53445925 0 31.06891852-15.53445925 31.06891851-31.06891852s-15.53445925-31.06891852-31.06891851-31.06891852H706.18074075l69.90506666-69.90506666c7.76722963-15.53445925 7.76722963-31.06891852 0-46.60337779z m-528.17161482 0c-15.53445925 15.53445925-15.53445925 31.06891852 0 46.60337779l69.90506666 69.90506666H154.70743703c-15.53445925 0-31.06891852 15.53445925-31.06891851 31.06891852s15.53445925 31.06891852 31.06891851 31.06891852H317.81925925l-69.90506666 69.90506666c-15.53445925 15.53445925-15.53445925 31.06891852 0 46.60337779 15.53445925 7.76722963 31.06891852 7.76722963 46.60337778 0L434.3277037 512 294.51757037 364.42263703c-15.53445925-7.76722963-31.06891852-7.76722963-46.60337778 0z" fill="currentColor" p-id="1976"></path><path d="M317.81925925 939.19762963H84.80237037V84.80237037h233.01688888v116.50844445h77.6722963V7.13007408H7.13007408v1009.73985184h388.36148147V822.68918518h-77.6722963zM628.50844445 7.13007408v194.18074074h77.6722963v-116.50844445h233.01688888v854.39525926H706.18074075v-116.50844445h-77.6722963v194.18074074h388.36148147V7.13007408z" fill="currentColor" p-id="1977"></path></svg>