<?xml version="1.0" standalone="no"?><!DOCTYPE svg PUBLIC "-//W3C//DTD SVG 1.1//EN" "http://www.w3.org/Graphics/SVG/1.1/DTD/svg11.dtd"><svg t="1692084279720" class="icon" viewBox="0 0 1181 1024" version="1.1" xmlns="http://www.w3.org/2000/svg" p-id="2344" xmlns:xlink="http://www.w3.org/1999/xlink" width="18.453125" height="16"><path d="M1142.15367111 0H39.38417778C7.99630222 0 0 8.27050667 0 39.38531555v945.2293689C0 1015.72949333 7.99516445 1024 39.38531555 1024h1102.76835556c31.39128889 0 39.38417778-8.27050667 39.38417778-39.38531555V39.38531555c0-31.11480889-7.99516445-39.38531555-39.38417778-39.38531555zM354.46328889 945.23050667l-276.992 3.26997333V749.568l276.992-1.25952v196.92202667z m0-275.69265778H78.76835555V472.61468445h275.69265778v196.92316444z m0-275.69152H78.76835555V236.30848h275.69265778v157.53671111z m393.84632889 551.38417778H433.23050667V748.30848h315.07683555v196.92202667z m0-275.69265778H433.23050667V472.61468445h315.07683555v196.92316444z m0-275.69152H433.23050667V236.30848h315.07683555v157.53671111z m354.46101333 551.38417778H827.07683555V748.30848h275.69265778v196.92202667z m0-275.69265778H827.07683555V472.61468445h275.69265778v196.92316444z m0-275.69152H827.07683555V236.30848h275.69265778v157.53671111z" fill="currentColor" p-id="2345"></path></svg>