<?xml version="1.0" standalone="no"?><!DOCTYPE svg PUBLIC "-//W3C//DTD SVG 1.1//EN" "http://www.w3.org/Graphics/SVG/1.1/DTD/svg11.dtd"><svg t="1692084293475" class="icon" viewBox="0 0 1024 1024" version="1.1" xmlns="http://www.w3.org/2000/svg" p-id="2632" xmlns:xlink="http://www.w3.org/1999/xlink" width="16" height="16"><path d="M1012.62222223 944.76190506a78.01904747 78.01904747 0 0 1-78.01904747 78.01904747H76.3936505a78.01904747 78.01904747 0 0 1-78.01904747-78.01904747V86.55238079a78.01904747 78.01904747 0 0 1 78.01904747-78.01904746h858.20952426a78.01904747 78.01904747 0 0 1 78.01904747 78.01904746v858.20952427zM466.4888889 554.66666666H76.3936505v390.0952384h390.0952384V554.66666666z m468.11428586 0H544.50793636v390.0952384h390.0952384V554.66666666zM466.4888889 86.55238079H76.3936505v390.0952384h390.0952384V86.55238079z m468.11428586 0H544.50793636v390.0952384h390.0952384V86.55238079z" fill="currentColor" p-id="2633"></path></svg>