<?xml version="1.0" standalone="no"?><!DOCTYPE svg PUBLIC "-//W3C//DTD SVG 1.1//EN" "http://www.w3.org/Graphics/SVG/1.1/DTD/svg11.dtd"><svg t="1692084879007" class="icon" viewBox="0 0 1024 1024" version="1.1" xmlns="http://www.w3.org/2000/svg" p-id="968" xmlns:xlink="http://www.w3.org/1999/xlink" width="16" height="16"><path d="M512 332.57913685H49.39294151c-20.56031346 0-41.12062691-17.13359531-41.12062805-41.12062692V44.73474502c0-20.56031346 17.13359531-41.12062691 41.12062805-41.12062691H512c20.56031346 0 41.12062691 17.13359531 41.12062691 41.12062691v246.72376491c0 23.98703275-17.13359531 41.12062691-41.12062691 41.12062692zM90.51356843 250.33788188h380.36580466V85.85537308H90.51356843v164.4825088z m884.09349006 757.30488889h-925.21411698c-20.56031346 0-41.12062691-17.13359531-41.12062805-41.12062692v-246.72376491c0-20.56031346 17.13359531-41.12062691 41.12062805-41.12062691h921.78739883c20.56031346 0 41.12062691 17.13359531 41.12062691 41.12062691v246.72376491c0 23.98703275-17.13359531 41.12062691-37.69390876 41.12062692zM90.51356843 928.82823509h842.97286314v-164.48250994H90.51356843v164.48250994z" fill="currentColor" p-id="969"></path><path d="M974.60705849 1017.92292864h-925.21411698c-27.41375203 0-47.97406549-20.56031346-47.97406549-47.97406549v-246.72376491c0-27.41375203 20.56031346-47.97406549 47.97406549-47.97406549h921.78739883c27.41375203 0 47.97406549 20.56031346 47.97406435 47.97406549v246.72376491c3.42671929 23.98703275-20.56031346 47.97406549-44.5473462 47.97406549z m-925.21411698-325.53830173c-17.13359531 0-30.84047019 13.70687602-30.84047132 30.84047133v246.72376491c0 17.13359531 13.70687602 30.84047019 30.84047132 30.84047018h921.78739883c17.13359531 0 30.84047019-13.70687602 30.84047019-30.84047018v-246.72376491c0-17.13359531-13.70687602-30.84047019-30.84047019-30.84047133H49.39294151z m890.9469275 243.29704675h-856.67973802v-181.61610523h860.10645731v181.61610523h-3.42671929zM100.79372515 921.97479765h825.83926784V774.62588188H100.79372515v147.34891577z m411.20627485-582.54222223H49.39294151c-27.41375203 0-47.97406549-20.56031346-47.97406549-47.97406549V44.73474502c0-27.41375203 20.56031346-47.97406549 47.97406549-47.97406549H512c27.41375203 0 47.97406549 20.56031346 47.97406549 47.97406549v246.72376491c0 27.41375203-20.56031346 47.97406549-47.97406549 47.97406549zM49.39294151 13.89427484c-17.13359531 0-30.84047019 13.70687602-30.84047132 30.84047018v246.72376491c0 17.13359531 13.70687602 30.84047019 30.84047132 30.84047019H512c17.13359531 0 30.84047019-13.70687602 30.84047019-30.84047019V44.73474502c0-17.13359531-13.70687602-30.84047019-30.84047019-30.84047018H49.39294151zM481.15952981 260.61803974H83.66013099V79.00193451h397.49939882V260.61803974zM100.79372515 243.48444444h363.23220936V96.13552981H100.79372515v147.34891463z" fill="currentColor" p-id="970"></path><path d="M974.60705849 130.40271929H628.50844445c-6.85343744 0-10.28015673 3.42671929-10.28015674 10.28015672v58.25422223c0 6.85343744 3.42671929 10.28015673 10.28015674 10.28015673h304.97798712V466.2211766H546.26718947l27.41375204-20.56031345c3.42671929-3.42671929 6.85343744-10.28015673 6.85343744-17.13359531v-58.25422223c0-6.85343744-3.42671929-10.28015673-10.28015673-10.28015672-3.42671929 0-3.42671929 0-6.85343744 3.42671928L409.19843157 486.78149006c-10.28015673 6.85343744-10.28015673 20.56031346-3.42671928 27.41375203l3.42671928 3.42671816 157.62907136 130.21532045c3.42671929 3.42671929 10.28015673 3.42671929 13.70687602 0 0-3.42671929 3.42671929-3.42671929 3.42671929-6.85343744v-61.6809415c0-6.85343744-3.42671929-10.28015673-6.85343858-13.70687602l-20.56031345-17.13359417h421.48643157c20.56031346 0 41.12062691-17.13359531 41.12062691-41.12062805V168.09662691c-6.85343744-20.56031346-23.98703275-37.69390877-44.5473462-37.69390762z" fill="currentColor" p-id="971"></path><path d="M573.68094151 661.54415673c-3.42671929 0-6.85343744 0-10.28015673-3.42671929l-157.62907249-130.21531933-3.4267193-3.42671928c-3.42671929-6.85343744-6.85343744-13.70687602-6.85343744-20.56031346 0-6.85343744 3.42671929-13.70687602 10.28015674-20.5603146l157.62907249-126.78860117c3.42671929-3.42671929 6.85343744-3.42671929 10.28015673-3.42671815 10.28015673 0 17.13359531 6.85343744 17.13359417 17.13359416v58.25422223c0 10.28015673-3.42671929 17.13359531-10.28015673 23.98703275l-10.28015673 6.85343744H923.20627485v-239.87032634h-294.6978304c-10.28015673 0-17.13359531-6.85343744-17.13359531-17.13359416V140.68287601c0-10.28015673 6.85343744-17.13359531 17.13359531-17.13359531h346.09861404c27.41375203 0 47.97406549 20.56031346 47.97406549 47.9740655v335.81845732c0 27.41375203-20.56031346 47.97406549-47.97406549 47.97406549H577.10765966l3.42671929 3.42671929c6.85343744 6.85343744 10.28015673 13.70687602 10.28015673 20.56031346v61.6809415c0 3.42671929 0 6.85343744-3.42671815 10.28015674-3.42671929 6.85343744-10.28015673 10.28015673-13.70687602 10.28015673z m0-291.27111112l-157.6290725 126.78860117c-3.42671929 3.42671929-3.42671929 3.42671929-3.42671815 6.85343859s0 6.85343744 3.42671815 10.28015672l157.6290725 130.21532047h3.42671815v-61.68094151c0-3.42671929 0-6.85343744-3.42671815-10.28015673l-41.12062805-34.26718948h442.04674503c17.13359531 0 30.84047019-13.70687602 30.84047132-30.84047132V168.09662691c0-17.13359531-13.70687602-30.84047019-30.84047132-30.84047018H628.50844445v61.68094151h311.83142456v274.1375158H522.28015673l47.97406549-37.69390763c3.42671929-3.42671929 3.42671929-6.85343744 3.42671929-10.28015787v-54.82750293z" fill="currentColor" p-id="972"></path></svg>